# xmcd
#
# Track frame offsets:
#	150
#	20200
#	33823
#	51144
#	65731
#	80169
#	97209
#	117875
#	132413
#	141619
#	157720
#	171548
#	187941
#	201621
#
# Disc length: 2751 seconds
#
# Revision: 0
# Processed by: cddbd v1.5.1PL0 Copyright (c) Steve Scherf et al.
# Submitted via: dBpowerAMP V4.0
#
DISCID=d70abd0e
DTITLE=Marcos Benaia - Vida Corrente
DYEAR=1900
DGENRE=Country
TTITLE0=Vida corrente
TTITLE1=Breves homens eternos
TTITLE2=Renovo
TTITLE3=Meu cavalo andaluz
TTITLE4=Águas que vêm no verão
TTITLE5=Venha ouvir Suzana
TTITLE6=Esperando São João
TTITLE7=Lida de Cantador
TTITLE8=Então a vida vale mais
TTITLE9=Meia Luz
TTITLE10=Êxodo rural (instrumental)
TTITLE11=Cavaleiros de cristal
TTITLE12=Nobreza nasce é no peito
TTITLE13=Celeiro (instrumental)
EXTD=
EXTT0=
EXTT1=
EXTT2=
EXTT3=
EXTT4=
EXTT5=
EXTT6=
EXTT7=
EXTT8=
EXTT9=
EXTT10=
EXTT11=
EXTT12=
EXTT13=
PLAYORDER=
